<?xml version="1.0" encoding="utf-8"?>
<!-- Generator: Adobe Illustrator 27.4.0, SVG Export Plug-In . SVG Version: 6.00 Build 0)  -->
<svg version="1.1" id="圖層_1" xmlns="http://www.w3.org/2000/svg" xmlns:xlink="http://www.w3.org/1999/xlink" x="0px" y="0px"
	 viewBox="0 0 168 24" style="enable-background:new 0 0 168 24;" xml:space="preserve">
<style type="text/css">
	.st0{enable-background:new    ;}
	.st1{fill:#653103;}
</style>
<g class="st0">
	<path class="st1" d="M9.6,6.1H1.9c-0.4,0-0.7-0.2-0.7-0.7s0.2-0.7,0.7-0.7h3V1.7c0-0.6,0.4-1,1-1s1,0.4,1,1v3.1h2.7
		c0.4,0,0.7,0.2,0.7,0.7S10.1,6.1,9.6,6.1z M8.8,8.1c0.4,0,0.7,0.2,0.7,0.7c0,0.4-0.2,0.7-0.7,0.7H2.6C2.2,9.4,2,9.2,2,8.7
		c0-0.4,0.2-0.7,0.7-0.7H8.8z M2.6,12.6c-0.4,0-0.7-0.2-0.7-0.7c0-0.4,0.2-0.7,0.7-0.7h6.2c0.4,0,0.7,0.2,0.7,0.7
		c0,0.4-0.2,0.7-0.7,0.7H2.6z M8.3,21.1H4.2v1c0,0.6-0.4,1-1,1s-1-0.4-1-1v-6.5c0-0.8,0.4-1.2,1.2-1.2h4.9c0.8,0,1.2,0.4,1.2,1.2
		v4.2C9.5,20.7,9,21.1,8.3,21.1z M7.5,16.1c0-0.2-0.1-0.3-0.3-0.3H4.4c-0.2,0-0.3,0.1-0.3,0.3v3.7h3c0.2,0,0.3-0.1,0.3-0.3V16.1z
		 M21.1,22.5c-0.9,0.1-1.6,0.1-2.5,0c-1.6-0.1-2.1-0.5-2.1-2.3v-6.7h-1.4c-0.2,4.9-1.8,7.9-6.1,9.6c-0.4,0.1-0.7,0-0.8-0.3
		c-0.1-0.3-0.1-0.6,0.3-0.8c3.3-2,4.3-4.2,4.5-8.5h-1.2c-0.8,0-1.2-0.4-1.2-1.2V7.5c0-0.8,0.4-1.2,1.2-1.2h4.7
		c0.6-1.5,1.2-3.2,1.6-4.6c0.2-0.8,0.8-1,1.5-0.7c0.7,0.2,0.9,0.7,0.6,1.4c-0.5,1.2-1.3,2.7-2.2,3.9h2c0.8,0,1.2,0.4,1.2,1.2v4.8
		c0,0.8-0.4,1.2-1.2,1.2h-1.3v6.2c0,0.7,0.1,0.9,0.7,1c0.4,0,0.8,0,1.3,0c0.6,0,0.7-0.4,0.7-3.9c0-0.5,0.2-0.6,0.5-0.6
		c0.3,0,0.6,0.2,0.6,0.6C23.3,21.3,22.7,22.3,21.1,22.5z M11.4,1.9c-0.2-0.4-0.1-0.6,0.2-0.9c0.3-0.2,0.6-0.1,0.9,0.2
		c0.8,0.8,1.8,2.2,2.5,3.3c0.4,0.7,0.2,1.2-0.4,1.5c-0.6,0.4-1.2,0.1-1.5-0.6C12.5,4.3,11.9,2.8,11.4,1.9z M12.9,12.1h5.9
		c0.2,0,0.3-0.1,0.3-0.3V8c0-0.2-0.1-0.3-0.3-0.3h-5.9c-0.2,0-0.3,0.1-0.3,0.3v3.9C12.6,12,12.7,12.1,12.9,12.1z"/>
	<path class="st1" d="M34.3,5.7c0,0.4-0.2,0.7-0.7,0.7h-7.6c-0.4,0-0.7-0.2-0.7-0.7c0-0.4,0.2-0.7,0.7-0.7h2.8V1.7
		c0-0.7,0.4-1.1,1.1-1.1c0.7,0,1.1,0.4,1.1,1.1V5h2.7C34.1,5,34.3,5.3,34.3,5.7z M33.6,9.1c0,0.4-0.2,0.7-0.7,0.7h-6.2
		c-0.4,0-0.7-0.3-0.7-0.7c0-0.4,0.2-0.7,0.7-0.7h6.2C33.3,8.4,33.6,8.6,33.6,9.1z M33.6,12.4c0,0.4-0.2,0.7-0.7,0.7h-6.2
		c-0.4,0-0.7-0.2-0.7-0.7c0-0.4,0.2-0.7,0.7-0.7h6.2C33.3,11.7,33.6,12,33.6,12.4z M33.5,16.2v6c0,0.6-0.3,1-1,1s-1-0.4-1-1v-0.8
		h-3.4v0.7c0,0.6-0.4,1-1,1c-0.6,0-1-0.4-1-1v-6c0-0.8,0.4-1.2,1.2-1.2h4.9C33,15,33.5,15.4,33.5,16.2z M31.5,16.6
		c0-0.2-0.1-0.3-0.3-0.3h-2.8c-0.2,0-0.3,0.1-0.3,0.3v3.5h3.4V16.6z M46.6,8.6c0,0.4-0.2,0.7-0.7,0.7h-4.4v4h2.9
		c0.8,0,1.2,0.4,1.2,1.2v7.6c0,0.7-0.4,1.1-1.1,1.1s-1.1-0.4-1.1-1.1v-0.8h-6.1v0.9c0,0.7-0.4,1.1-1.1,1.1c-0.7,0-1.1-0.4-1.1-1.1
		v-7.7c0-0.8,0.4-1.2,1.2-1.2h2.9v-4h-4.2c-0.4,0-0.7-0.3-0.7-0.7S34.7,8,35.2,8h4.2V4.1c-1.3,0.2-2.6,0.3-3.7,0.4
		c-0.5,0-0.7-0.2-0.8-0.6c0-0.4,0.2-0.6,0.6-0.7c2.7-0.5,5.9-1.4,8.1-2.4c0.7-0.4,1.5-0.3,1.8,0.4c0.3,0.7,0,1.3-0.7,1.6
		c-0.9,0.3-2,0.6-3.2,0.9V8h4.4C46.4,8,46.6,8.2,46.6,8.6z M43.2,14.7h-5.6c-0.2,0-0.3,0.1-0.3,0.3v4.9h6.1V15
		C43.5,14.8,43.4,14.7,43.2,14.7z"/>
	<path class="st1" d="M51.7,5.4c0.1,1.8-0.2,4.2-0.7,5.8c-0.2,0.7-0.8,0.9-1.4,0.6c-0.6-0.3-0.7-0.8-0.4-1.4
		c0.7-1.5,1.1-3.3,1.3-5.1c0-0.5,0.3-0.6,0.6-0.6C51.5,4.7,51.7,4.9,51.7,5.4z M54.4,1.7v20.2c0,0.7-0.4,1-1,1c-0.7,0-1-0.4-1-1V1.7
		c0-0.6,0.4-1,1-1C54,0.6,54.4,1,54.4,1.7z M55.4,8.3c-0.1-1.1-0.3-2.4-0.5-3.5c-0.1-0.4,0.1-0.6,0.4-0.7C55.6,4,55.8,4.2,56,4.5
		c0.5,1,0.9,2.3,1.2,3.5c0.1,0.6-0.1,1.1-0.7,1.2C55.9,9.3,55.4,9,55.4,8.3z M70.8,21.6c0,0.5-0.2,0.7-0.7,0.7H56.5
		c-0.4,0-0.7-0.2-0.7-0.7c0-0.5,0.2-0.7,0.7-0.7h6v-6.3h-4.4c-0.4,0-0.7-0.3-0.7-0.7c0-0.5,0.2-0.7,0.7-0.7h4.4v-5h-2.9
		c-0.6,1.6-1.2,3-2,3.9c-0.3,0.4-0.6,0.4-0.9,0.2c-0.3-0.2-0.4-0.6-0.2-0.9c1-2,1.6-4.9,1.9-8.1c0.1-0.7,0.5-1.1,1.3-1
		c0.8,0.1,1.1,0.6,1,1.2c-0.1,1.1-0.4,2.1-0.6,3.1h2.5v-5c0-0.7,0.4-1.1,1.1-1.1c0.7,0,1.1,0.4,1.1,1.1v5h4.8c0.4,0,0.7,0.3,0.7,0.7
		s-0.2,0.7-0.7,0.7h-4.8v5H69c0.4,0,0.7,0.3,0.7,0.7c0,0.5-0.2,0.7-0.7,0.7h-4.4v6.3h5.5C70.6,20.8,70.8,21.1,70.8,21.6z"/>
	<path class="st1" d="M81.6,6.1h-7.7c-0.4,0-0.7-0.2-0.7-0.7s0.2-0.7,0.7-0.7h2.9V1.9c0-0.7,0.4-1,1-1c0.7,0,1,0.4,1,1v2.9h2.7
		c0.4,0,0.7,0.2,0.7,0.7S82.1,6.1,81.6,6.1z M81.5,8.8c0,0.4-0.2,0.7-0.7,0.7h-6.2c-0.4,0-0.7-0.3-0.7-0.7c0-0.4,0.2-0.7,0.7-0.7
		h6.2C81.3,8.1,81.5,8.4,81.5,8.8z M81.5,12c0,0.4-0.2,0.7-0.7,0.7h-6.2c-0.4,0-0.7-0.2-0.7-0.7c0-0.4,0.2-0.7,0.7-0.7h6.2
		C81.3,11.4,81.5,11.6,81.5,12z M81.5,15.9v6.1c0,0.6-0.3,1-1,1c-0.6,0-1-0.3-1-1v-0.8h-3.5v0.9c0,0.6-0.3,1-1,1c-0.6,0-1-0.4-1-1
		v-6.2c0-0.8,0.4-1.2,1.2-1.2h4.9C81,14.7,81.5,15.1,81.5,15.9z M79.6,16.3c0-0.2-0.1-0.3-0.3-0.3h-2.9c-0.2,0-0.3,0.1-0.3,0.3v3.6
		h3.5V16.3z M94.8,12c0,0.4-0.2,0.7-0.7,0.7H82.6c-0.4,0-0.7-0.3-0.7-0.7s0.2-0.6,0.7-0.6h2c0.3-1.3,0.6-2.6,0.8-3.9h-2
		c-0.4,0-0.7-0.2-0.7-0.7c0-0.4,0.2-0.6,0.7-0.6h2.2c0.2-0.9,0.3-1.8,0.4-2.8h-3.5c-0.4,0-0.7-0.3-0.7-0.7s0.2-0.6,0.7-0.6h10.8
		c0.4,0,0.7,0.2,0.7,0.6c0,0.4-0.2,0.7-0.7,0.7h-5.3l-0.4,2.8h3.8c0.8,0,1.2,0.4,1.2,1.2v4h1.5C94.6,11.4,94.8,11.6,94.8,12z
		 M93.5,15.6v6.6c0,0.7-0.4,1.1-1.1,1.1c-0.7,0-1.1-0.4-1.1-1.1v-0.9h-6.2v0.9c0,0.7-0.4,1.1-1.1,1.1s-1.1-0.4-1.1-1.1v-6.6
		c0-0.8,0.4-1.2,1.2-1.2h8.1C93.1,14.4,93.5,14.8,93.5,15.6z M91.4,19.9V16c0-0.2-0.1-0.3-0.3-0.3h-5.7c-0.2,0-0.3,0.1-0.3,0.3v3.9
		H91.4z M86.6,11.4h4V7.8c0-0.2-0.1-0.3-0.3-0.3h-2.9C87.2,8.8,86.9,10.1,86.6,11.4z"/>
	<path class="st1" d="M118.8,10.4c0,0.5-0.3,0.7-0.7,0.7H97.9c-0.5,0-0.7-0.3-0.7-0.7s0.3-0.7,0.7-0.7h6l-0.1-0.2
		c-0.5-1.1-1.2-2.2-1.8-3.1c-0.2-0.4-0.2-0.6,0.1-0.9c0.2-0.2,0.6-0.2,0.9,0c1,0.8,1.9,1.8,2.7,2.8c0.4,0.6,0.4,1,0.1,1.4h4.2
		c0.6-1.1,1.2-2.5,1.6-3.6c0.3-0.8,0.9-0.9,1.6-0.6c0.7,0.3,0.8,1,0.4,1.6c-0.5,0.9-1.2,1.8-1.9,2.6h6.4
		C118.5,9.7,118.8,10,118.8,10.4z M99,4.5c0-0.4,0.3-0.7,0.7-0.7h7.2V1.7c0-0.7,0.4-1.1,1.1-1.1c0.7,0,1.1,0.4,1.1,1.1v2.1h7.2
		c0.4,0,0.7,0.3,0.7,0.7c0,0.4-0.3,0.7-0.7,0.7H99.7C99.2,5.2,99,4.9,99,4.5z M115,13.9v8.2c0,0.7-0.4,1.1-1.1,1.1
		c-0.7,0-1.1-0.4-1.1-1.1v-0.7h-9.5v0.7c0,0.7-0.4,1.1-1.1,1.1s-1.1-0.4-1.1-1.1v-8.2c0-0.8,0.4-1.2,1.2-1.2h11.5
		C114.5,12.7,115,13.1,115,13.9z M103.2,16.3h9.5v-1.9c0-0.2-0.1-0.3-0.3-0.3h-8.9c-0.2,0-0.3,0.1-0.3,0.3V16.3z M112.7,20v-2.4
		h-9.5V20H112.7z"/>
	<path class="st1" d="M122.3,7.7c-0.3,0.2-0.6,0.3-0.9,0.1s-0.2-0.6,0.1-0.9c1.2-1.3,2.3-3.3,3.1-5.4c0.3-0.7,0.8-1.1,1.5-0.8
		c0.7,0.3,0.9,0.8,0.6,1.3c-0.1,0.3-0.3,0.6-0.5,0.9h5.5c0.4,0,0.7,0.2,0.7,0.6c0,0.4-0.2,0.7-0.7,0.7H129c0.4,0.3,0.8,0.7,1.2,1.3
		c0.4,0.5,0.3,1.1-0.3,1.4c-0.6,0.3-1,0-1.2-0.6c-0.3-0.7-0.6-1.5-1-2.1h-2.2C124.5,5.5,123.4,6.8,122.3,7.7z M130.5,17V22
		c0,0.6-0.4,1-1,1s-1-0.4-1-1v-0.5h-3.8v0.8c0,0.7-0.4,1-1,1s-1-0.4-1-1V10c0-0.8,0.4-1.2,1.2-1.2h1.2c0.2-0.7,0.4-1.6,0.6-2.4
		c0.1-0.7,0.5-1,1.2-0.8c0.7,0.2,1,0.8,0.6,1.6c-0.3,0.6-0.6,1.2-1,1.7h2.5c0.8,0,1.2,0.4,1.2,1.2v2.8c0,0.8-0.4,1.2-1.2,1.2h-4.2
		v1.8h4.6C130.1,15.8,130.5,16.3,130.5,17z M124.7,12.7h3.1c0.2,0,0.3-0.1,0.3-0.3v-2c0-0.2-0.1-0.3-0.3-0.3H125
		c-0.2,0-0.3,0.1-0.3,0.3V12.7z M128.5,20.1v-2.7c0-0.2-0.1-0.3-0.3-0.3h-3.5v3H128.5z M142.7,8c0,0.4-0.2,0.7-0.7,0.7h-4.5v2.1h3
		c0.8,0,1.2,0.4,1.2,1.2v6.8c0,1.7-1.2,2.3-3.6,1.5c-0.3-0.1-0.5-0.4-0.4-0.7c0.1-0.3,0.3-0.4,0.7-0.4c1.1,0.1,1.3-0.1,1.3-1.1v-5.8
		c0-0.2-0.1-0.3-0.3-0.3h-1.9v10.3c0,0.7-0.4,1-1,1s-1-0.4-1-1V12h-1.8c-0.2,0-0.3,0.1-0.3,0.3v7.9c0,0.6-0.4,1-1,1s-1-0.4-1-1V12
		c0-0.8,0.4-1.2,1.2-1.2h2.9V8.7h-4.4c-0.4,0-0.7-0.3-0.7-0.7c0-0.4,0.2-0.6,0.7-0.6h11C142.5,7.4,142.7,7.6,142.7,8z M131.2,6
		c1-1.2,1.8-2.9,2.4-4.5c0.3-0.7,0.7-1,1.4-0.7s0.9,0.8,0.4,1.7l-0.3,0.5h6.6c0.4,0,0.7,0.2,0.7,0.6c0,0.4-0.2,0.7-0.7,0.7H138
		c0.4,0.4,0.8,0.8,1.2,1.3c0.4,0.5,0.2,1.1-0.3,1.3c-0.6,0.3-1,0-1.2-0.5c-0.3-0.7-0.6-1.5-1-2.1h-2.4c-0.7,1-1.6,1.9-2.3,2.5
		c-0.3,0.3-0.6,0.3-0.9,0.1C130.8,6.6,130.9,6.3,131.2,6z"/>
	<path class="st1" d="M151.1,12.7c-0.2-0.6-0.4-1.2-0.6-1.9v11.3c0,0.6-0.4,1-1,1c-0.6,0-1-0.4-1-1V12.1c-0.6,1.7-1.4,3.5-2.4,4.6
		c-0.2,0.3-0.5,0.3-0.7,0.2c-0.2-0.2-0.3-0.5-0.1-0.8c1.4-2.5,2.4-5.5,2.8-9.1h-2c-0.4,0-0.7-0.3-0.7-0.7s0.2-0.6,0.7-0.6h2.4V1.6
		c0-0.6,0.4-1,1-1c0.6,0,1,0.4,1,1v4.1h2.3c0.4,0,0.7,0.2,0.7,0.6c0,0.4-0.2,0.7-0.7,0.7h-2.3v1.7c0.9,1.1,1.7,2.4,2.2,3.4
		c0.3,0.6,0.1,1.1-0.4,1.3C151.8,13.6,151.3,13.4,151.1,12.7z M157.5,20.9c-0.5-0.6-1-1.2-1.6-1.8c-1,1.9-2.6,3.3-3.8,4
		c-0.3,0.2-0.6,0.1-0.8-0.2c-0.2-0.3-0.1-0.6,0.2-0.8c1.6-1.2,2.6-3.1,3.2-5.5c0.2-0.7,0.6-1,1.3-0.8c0.7,0.1,0.9,0.6,0.8,1.2
		c-0.1,0.3-0.2,0.7-0.3,1c0.8,0.5,1.6,1.1,2.3,1.7c0.5,0.4,0.5,0.9,0,1.3C158.4,21.4,157.9,21.4,157.5,20.9z M166.7,8.5
		c-0.2,0.7-0.9,0.9-1.7,0.6c-0.6-0.3-1.3-0.7-2-1.2c0,0.3-0.3,0.5-0.7,0.5h-6.7c-0.3,0-0.6-0.2-0.6-0.4c-0.8,0.6-1.7,1.1-2.4,1.5
		c-0.4,0.2-0.7,0.1-0.9-0.2c-0.2-0.3-0.1-0.6,0.3-0.9c2.5-1.7,4.6-4.3,5.8-7c0.4-0.8,0.9-1,1.6-0.7c0.7,0.3,0.9,0.9,0.5,1.6
		c1.8,2.3,3.7,3.5,6,4.6C166.7,7.2,166.9,7.8,166.7,8.5z M154.2,15.5c-0.8,0-1.2-0.4-1.2-1.2v-3.4c0-0.8,0.4-1.2,1.2-1.2h3.2
		c0.8,0,1.2,0.4,1.2,1.2v3.4c0,0.8-0.4,1.2-1.2,1.2H154.2z M154.8,13.9c0,0.2,0.1,0.3,0.3,0.3h1.3c0.2,0,0.3-0.1,0.3-0.3v-2.6
		c0-0.2-0.1-0.3-0.3-0.3h-1.3c-0.2,0-0.3,0.1-0.3,0.3V13.9z M162.1,7c-1.1-1-2-2.2-2.8-3.6c-0.9,1.4-2,2.6-3.1,3.6H162.1z
		 M166.1,21.3c0.4,0.5,0.4,1,0,1.4c-0.5,0.4-1.1,0.4-1.5-0.2c-0.6-0.9-1.4-2-2.3-3.1c-1,1.8-2.5,3-3.7,3.6c-0.3,0.2-0.6,0.1-0.8-0.2
		c-0.2-0.3-0.1-0.6,0.2-0.8c1.6-1.2,2.8-3,3.3-5.4c0.1-0.6,0.6-0.9,1.2-0.8c0.7,0.1,0.9,0.6,0.7,1.2c-0.1,0.4-0.2,0.8-0.4,1.2
		C164.1,19.2,165.4,20.4,166.1,21.3z M160.8,15.5c-0.8,0-1.2-0.4-1.2-1.2v-3.4c0-0.8,0.4-1.2,1.2-1.2h3.2c0.8,0,1.2,0.4,1.2,1.2v3.4
		c0,0.8-0.4,1.2-1.2,1.2H160.8z M161.4,13.9c0,0.2,0.1,0.3,0.3,0.3h1.3c0.2,0,0.3-0.1,0.3-0.3v-2.6c0-0.2-0.1-0.3-0.3-0.3h-1.3
		c-0.2,0-0.3,0.1-0.3,0.3V13.9z"/>
</g>
</svg>
