<?xml version="1.0" encoding="utf-8"?>
<!-- Generator: Adobe Illustrator 27.4.0, SVG Export Plug-In . SVG Version: 6.00 Build 0)  -->
<svg version="1.1" id="圖層_1" xmlns="http://www.w3.org/2000/svg" xmlns:xlink="http://www.w3.org/1999/xlink" x="0px" y="0px"
	 viewBox="0 0 300 133" style="enable-background:new 0 0 300 133;" xml:space="preserve">
<style type="text/css">
	.st0{enable-background:new    ;}
	.st1{fill:#653103;}
</style>
<g class="st0">
	<path class="st1" d="M8,44.2c2.5,1.9,5.3,3.7,9.7,3.7c4.4,0,7.1-2,7.2-5.5c0.1-3-1.5-5.4-8.5-9.1C7.7,28.7,3.7,25.2,3.7,19.1
		c0.2-6.7,6-11,15.1-11c5.4,0,9.8,1.6,11.9,3.5c1.4,1.3,1.7,3.1,0.7,4.5c-1,1.4-2.9,1.9-4.5,0.5c-2-1.6-4.6-2.8-8.3-2.7
		c-3.8,0-6.2,1.9-6.2,4.6c-0.1,2.9,1.4,5.1,8.5,8.8c9.2,4.9,12.8,8.4,12.8,14.2c0,7.8-5.9,12.4-15.6,12.4c-6.1,0-11-1.9-13.6-4.5
		C3,48,2.9,46.2,3.9,44.8C4.9,43.5,6.6,43.2,8,44.2z"/>
	<path class="st1" d="M73.7,22.2c0,10.1-8.2,14-17.9,14.2c-1.7,0-3.3-0.1-4.7-0.1v13.4c0,2.8-1.6,4.2-4.2,4.2
		c-2.8,0-4.2-1.4-4.2-4.2v-36c0-2.7,1.3-4.3,4-4.7c2.3-0.2,5.6-0.4,8.6-0.4C66.5,8.7,73.7,13.2,73.7,22.2z M65.2,22.4
		c0-5.2-3.5-8.2-9.8-8.2c-1.3,0-2.9,0.1-3.7,0.2c-0.4,0.1-0.6,0.3-0.6,0.7v15.7c1.4,0.1,3.1,0.1,4.5,0.1
		C61.9,30.7,65.2,27.9,65.2,22.4z"/>
	<path class="st1" d="M107,53H86.9c-2.9,0-4.4-1.6-4.4-4.5V13.4c0-2.8,1.6-4.4,4.4-4.4h19.7c1.7,0,2.8,1,2.8,2.8
		c0,1.9-1,2.9-2.8,2.9H91.4c-0.4,0-0.7,0.2-0.7,0.7v12.1h14c1.7,0,2.8,1,2.8,2.8c0,1.8-1,2.8-2.8,2.8h-14v13.6
		c0,0.4,0.2,0.7,0.7,0.7H107c1.7,0,2.8,1,2.8,2.8C109.8,52,108.8,53,107,53z"/>
	<path class="st1" d="M150.6,53.5c-2.7,0.8-4.6,0.1-5.3-2.6c-1.1-3.9-2.3-7.8-3.5-11.7h-15.4l-3.9,11.9c-0.7,2.3-2.3,3.1-4.6,2.4
		c-2.3-0.7-3.2-2.3-2.3-4.7l12.5-36c1.1-3.2,2.9-4.8,6.1-4.8c3.1,0,5.6,1.6,6.8,4.8c3.7,10.3,8.5,23.7,12.2,35.5
		C153.9,51.1,153.1,52.8,150.6,53.5z M140,33.7c-1.9-6-3.7-11.9-5.6-17.7H134l-5.8,17.7H140z"/>
	<path class="st1" d="M161.8,49.9V12.1c0-2.7,1.5-4,4.1-4c2.7,0,4.2,1.4,4.2,4V29c2.2-2.3,3.8-4.1,7.3-8.3l9.4-11.2
		c1.4-1.7,3.4-2,5.2-0.6c1.7,1.3,1.9,3.2,0.4,5c-3.8,4.5-8.8,10.1-12.7,14.3l13.7,19.6c1.4,2,1.1,4-1,5.3c-2,1.3-4.1,0.8-5.5-1.3
		l-12.4-19l-4.4,4.6v12.4c0,2.6-1.5,4-4.1,4C163.2,53.9,161.8,52.6,161.8,49.9z"/>
</g>
<g class="st0">
	<path class="st1" d="M5.2,88.4c-1.4,0-2.2-0.8-2.2-2.2c0-1.4,0.8-2.2,2.2-2.2h6v-6.6c0-2,1.3-3.3,3.5-3.3s3.5,1.3,3.5,3.3V84h5.2
		c1.4,0,2.2,0.8,2.2,2.2c0,1.4-0.7,2.2-2.2,2.2H5.2z M4.9,94.4c0-1.4,0.8-2.2,2.2-2.2h14.7c1.4,0,2.2,0.8,2.2,2.2s-0.8,2.2-2.2,2.2
		H7C5.6,96.6,4.9,95.8,4.9,94.4z M4.9,102.3c0-1.4,0.8-2.2,2.2-2.2h14.6c1.4,0,2.2,0.8,2.2,2.2c0,1.3-0.8,2.2-2.2,2.2H7.1
		C5.7,104.5,4.9,103.6,4.9,102.3z M20.5,125.4h-8.8v2c0,1.9-1.1,2.9-3.2,2.9c-2,0-3.2-1.1-3.2-2.9v-15.7c0-2.2,1.2-3.5,3.5-3.5h11.8
		c2.3,0,3.5,1.3,3.5,3.5v10.1C24,124.2,22.7,125.4,20.5,125.4z M17.5,113.2c0-0.4-0.3-0.7-0.7-0.7h-4.4c-0.4,0-0.7,0.3-0.7,0.7v8.1
		h5.2c0.4,0,0.7-0.3,0.7-0.7V113.2z M52.6,128.7c-2.2,0.2-4.1,0.2-6.5,0.1c-4.3-0.4-5.4-1.7-5.4-6.5v-15.7h-2.5
		c-0.5,11.9-4.9,19.9-14.9,23.6c-1.1,0.4-2,0.1-2.5-0.8c-0.5-1-0.2-1.8,0.8-2.5c6.8-4.4,9.4-9.7,9.8-20.3h-2c-2.3,0-3.5-1.3-3.5-3.5
		V91.3c0-2.3,1.3-3.5,3.5-3.5h3.4c-0.6-0.4-1.1-1-1.4-1.9c-1-2.6-2.3-5.8-3.4-8.2c-0.5-1.2-0.3-2.1,0.6-2.8c1-0.6,1.9-0.5,2.8,0.4
		c1.9,1.8,4.3,4.7,5.9,7.4c1.3,2.2,0.8,3.7-1.2,4.7c-0.2,0.1-0.3,0.2-0.5,0.2h5.6c1.2-3.3,2.3-7,3.1-10.6c0.5-2.5,2.2-3.1,4.5-2.5
		c2.2,0.6,2.9,2.3,2.1,4.4c-1.2,3.1-3,6.2-4.9,8.7h3.8c2.3,0,3.5,1.3,3.5,3.5v11.8c0,2.2-1.2,3.5-3.5,3.5h-2.5v14.1
		c0,1.4,0.2,1.8,1.4,1.9c0.8,0.1,1.6,0.1,2.5,0c1.3-0.1,1.4-0.9,1.6-8.5c0.1-1.3,0.8-1.8,1.7-1.8c1,0,1.7,0.5,1.9,1.7
		C58.1,125.1,56.9,128.4,52.6,128.7z M32.9,101.6c0,0.4,0.3,0.7,0.7,0.7h12.2c0.4,0,0.7-0.3,0.7-0.7v-8.8c0-0.4-0.3-0.7-0.7-0.7
		H33.6c-0.4,0-0.7,0.3-0.7,0.7V101.6z"/>
	<path class="st1" d="M86,86.8c0,1.4-0.7,2.2-2.2,2.2H65.3c-1.4,0-2.2-0.8-2.2-2.2c0-1.4,0.7-2.2,2.2-2.2h5.9v-7.6
		c0-1.9,1.4-3,3.7-3c2.4,0,3.7,1.1,3.7,3v7.6h5.2C85.3,84.6,86,85.3,86,86.8z M84.1,95.1c0,1.4-0.8,2.2-2.2,2.2H66.9
		c-1.4,0-2.2-0.8-2.2-2.2s0.8-2.1,2.2-2.1H82C83.3,93,84.1,93.7,84.1,95.1z M84.1,103.2c0,1.4-0.8,2.2-2.2,2.2H66.9
		c-1.4,0-2.2-0.8-2.2-2.2c0-1.3,0.8-2.1,2.2-2.1H82C83.3,101.1,84.1,101.8,84.1,103.2z M84.1,112.6v14.8c0,1.9-1.1,2.9-3.2,2.9
		c-2,0-3.2-1-3.2-2.9V126h-5.9v1.5c0,1.9-1.2,2.9-3.3,2.9c-2.2,0-3.4-1-3.4-2.9v-14.8c0-2.2,1.3-3.5,3.5-3.5h12.1
		C82.8,109.2,84.1,110.4,84.1,112.6z M77.6,114c0-0.4-0.3-0.7-0.7-0.7h-4.5c-0.4,0-0.7,0.3-0.7,0.7v7.8h5.9V114z M116.8,94.2
		c0,1.4-0.7,2.3-2.1,2.3h-9.8v8.8h6c2.3,0,3.5,1.3,3.5,3.5v18.5c0,2.2-1.3,3.2-3.7,3.2s-3.6-1-3.6-3.2v-1.4H94.9v1.5
		c0,2.2-1.3,3.2-3.7,3.2s-3.6-1.1-3.6-3.2v-18.5c0-2.3,1.2-3.5,3.5-3.5h6.1v-8.8H88c-1.4,0-2.2-0.8-2.2-2.3c0-1.4,0.8-2.2,2.2-2.2
		h9.2v-8.2c-2.9,0.3-5.8,0.5-8.3,0.6c-1.3,0.1-2.1-0.5-2.2-1.7c-0.1-1,0.4-1.8,1.8-2c6.5-1.2,14-3.4,19.5-5.9
		c2.3-1.1,4.5-0.8,5.6,1.4c1.1,2.3,0.1,4.2-2.3,5c-1.9,0.6-4,1.1-6.4,1.6V92h9.8C116,92,116.8,92.8,116.8,94.2z M106.4,109.5H95.6
		c-0.4,0-0.7,0.3-0.7,0.7v11.1h12.3v-11.1C107.2,109.8,106.9,109.5,106.4,109.5z"/>
	<path class="st1" d="M143,121.1c-1.3-1.3-2.5-2.6-3.8-3.8c-3.3,5.3-7.7,9.5-13.1,12.7c-1.1,0.6-2,0.5-2.6-0.4
		c-0.6-0.9-0.4-1.9,0.6-2.6c4.7-3.5,8.2-7.9,10.7-13.3c-1-0.7-1.9-1.4-2.9-2l-0.2,0.7c-0.6,2.2-2.2,3.1-4.3,2.6
		c-2.1-0.5-2.9-2-2.3-4.3c1.4-5.5,2.8-12.5,3.9-19.6h-3.9c-1.4,0-2.2-0.8-2.2-2.2s0.7-2.2,2.2-2.2h4.6c0.5-3.3,0.9-6.5,1.3-9.4
		c0.3-2.2,1.6-3.1,4-2.9c2.3,0.1,3.4,1.4,3.1,3.6c-0.3,2.7-0.7,5.6-1.2,8.8h6.1c2.8,0,4,1.4,3.7,4.5c-0.5,8-2.1,14.9-4.6,20.8
		c2,1.1,4,2.5,5.8,3.8c2.2,1.6,2.5,3.6,0.9,5.5C147.1,123.1,144.9,123.1,143,121.1z M136.5,109.1c1.7-4.9,2.8-10.7,3.3-17.4
		c0.1-0.5-0.2-0.8-0.7-0.8h-3.1c-1,5.8-2,11.6-3.2,16.7C134,108,135.3,108.6,136.5,109.1z M176.9,101.6c0,1.5-0.8,2.3-2.3,2.3h-9.4
		V123c0,6.8-6.5,9.5-17,4.8c-1.1-0.5-1.5-1.3-1.3-2.3c0.2-1.1,1.1-1.4,2.4-1.3c7.3,0.8,8,0.2,8-3.2v-17h-9.6c-1.5,0-2.3-0.9-2.3-2.3
		c0-1.4,0.8-2.3,2.3-2.3h9.6v-6.8c0-2.2,1.4-3.5,3.9-3.5c0.5,0,1.1,0.1,1.5,0.2c1.7-2.3,3.2-4.9,4.1-6.8c0.2-0.5,0-0.8-0.5-0.8h-17
		c-1.4,0-2.2-0.8-2.2-2.2c0-1.3,0.8-2.2,2.2-2.2h18.1c1.7-1.4,4.3-1.7,6.3-0.4c2,1.4,2.4,4,1,6.1c-2.2,3.4-6.2,7.6-9.5,10.3v6.1h9.4
		C176.1,99.3,176.9,100.2,176.9,101.6z"/>
	<path class="st1" d="M203,121.1c-1.3-1.3-2.5-2.6-3.8-3.8c-3.3,5.3-7.7,9.5-13.1,12.7c-1.1,0.6-2,0.5-2.6-0.4
		c-0.6-0.9-0.4-1.9,0.6-2.6c4.7-3.5,8.2-7.9,10.7-13.3c-1-0.7-1.9-1.4-2.9-2l-0.2,0.7c-0.6,2.2-2.2,3.1-4.3,2.6
		c-2.1-0.5-2.9-2-2.3-4.3c1.4-5.5,2.8-12.5,3.9-19.6h-3.9c-1.4,0-2.2-0.8-2.2-2.2s0.7-2.2,2.2-2.2h4.6c0.5-3.3,0.9-6.5,1.3-9.4
		c0.3-2.2,1.6-3.1,4-2.9c2.3,0.1,3.4,1.4,3.1,3.6c-0.3,2.7-0.7,5.6-1.2,8.8h6.1c2.8,0,4,1.4,3.7,4.5c-0.5,8-2.1,14.9-4.6,20.8
		c2,1.1,4,2.5,5.8,3.8c2.2,1.6,2.5,3.6,0.9,5.5C207.1,123.1,204.9,123.1,203,121.1z M196.5,109.1c1.7-4.9,2.8-10.7,3.3-17.4
		c0.1-0.5-0.2-0.8-0.7-0.8h-3.1c-1,5.8-2,11.6-3.2,16.7C194,108,195.3,108.6,196.5,109.1z M236.9,101.6c0,1.5-0.8,2.3-2.3,2.3h-9.4
		V123c0,6.8-6.5,9.5-17,4.8c-1.1-0.5-1.5-1.3-1.3-2.3c0.2-1.1,1.1-1.4,2.4-1.3c7.3,0.8,8,0.2,8-3.2v-17h-9.6c-1.5,0-2.3-0.9-2.3-2.3
		c0-1.4,0.8-2.3,2.3-2.3h9.6v-6.8c0-2.2,1.4-3.5,3.9-3.5c0.5,0,1.1,0.1,1.5,0.2c1.7-2.3,3.2-4.9,4.1-6.8c0.2-0.5,0-0.8-0.5-0.8h-17
		c-1.4,0-2.2-0.8-2.2-2.2c0-1.3,0.8-2.2,2.2-2.2h18.1c1.7-1.4,4.3-1.7,6.3-0.4c2,1.4,2.4,4,1,6.1c-2.2,3.4-6.2,7.6-9.5,10.3v6.1h9.4
		C236.1,99.3,236.9,100.2,236.9,101.6z"/>
	<path class="st1" d="M245.2,88.4c-1.4,0-2.2-0.8-2.2-2.2c0-1.4,0.8-2.2,2.2-2.2h6v-6.6c0-2,1.3-3.3,3.5-3.3c2.3,0,3.5,1.3,3.5,3.3
		V84h5.2c1.4,0,2.2,0.8,2.2,2.2c0,1.4-0.7,2.2-2.2,2.2H245.2z M244.9,94.4c0-1.4,0.8-2.2,2.2-2.2h14.7c1.4,0,2.2,0.8,2.2,2.2
		s-0.8,2.2-2.2,2.2H247C245.6,96.6,244.9,95.8,244.9,94.4z M244.9,102.3c0-1.4,0.8-2.2,2.2-2.2h14.6c1.4,0,2.2,0.8,2.2,2.2
		c0,1.3-0.8,2.2-2.2,2.2h-14.6C245.7,104.5,244.9,103.6,244.9,102.3z M260.5,125.4h-8.8v2c0,1.9-1.1,2.9-3.2,2.9
		c-2,0-3.2-1.1-3.2-2.9v-15.7c0-2.2,1.2-3.5,3.5-3.5h11.8c2.3,0,3.5,1.3,3.5,3.5v10.1C264,124.2,262.7,125.4,260.5,125.4z
		 M257.5,113.2c0-0.4-0.3-0.7-0.7-0.7h-4.4c-0.4,0-0.7,0.3-0.7,0.7v8.1h5.2c0.4,0,0.7-0.3,0.7-0.7V113.2z M292.6,128.7
		c-2.2,0.2-4.1,0.2-6.5,0.1c-4.3-0.4-5.4-1.7-5.4-6.5v-15.7h-2.5c-0.5,11.9-4.9,19.9-14.9,23.6c-1.1,0.4-2,0.1-2.5-0.8
		c-0.5-1-0.2-1.8,0.8-2.5c6.8-4.4,9.4-9.7,9.8-20.3h-2c-2.3,0-3.5-1.3-3.5-3.5V91.3c0-2.3,1.3-3.5,3.5-3.5h3.4
		c-0.6-0.4-1.1-1-1.4-1.9c-1-2.6-2.3-5.8-3.4-8.2c-0.5-1.2-0.3-2.1,0.6-2.8c1-0.6,1.9-0.5,2.8,0.4c1.9,1.8,4.3,4.7,5.9,7.4
		c1.3,2.2,0.8,3.7-1.2,4.7c-0.2,0.1-0.3,0.2-0.5,0.2h5.6c1.2-3.3,2.3-7,3.1-10.6c0.5-2.5,2.2-3.1,4.5-2.5c2.2,0.6,2.9,2.3,2.1,4.4
		c-1.2,3.1-3,6.2-4.9,8.7h3.8c2.3,0,3.5,1.3,3.5,3.5v11.8c0,2.2-1.2,3.5-3.5,3.5h-2.5v14.1c0,1.4,0.2,1.8,1.4,1.9
		c0.8,0.1,1.6,0.1,2.5,0c1.3-0.1,1.4-0.9,1.6-8.5c0.1-1.3,0.8-1.8,1.7-1.8c1,0,1.7,0.5,1.9,1.7C298.1,125.1,296.9,128.4,292.6,128.7
		z M272.9,101.6c0,0.4,0.3,0.7,0.7,0.7h12.2c0.4,0,0.7-0.3,0.7-0.7v-8.8c0-0.4-0.3-0.7-0.7-0.7h-12.2c-0.4,0-0.7,0.3-0.7,0.7V101.6z
		"/>
</g>
</svg>
